<?xml version="1.0" encoding="UTF-8" standalone="no"?>
<svg 
   id="Layer_1"  width="509px"   height="716.105px" viewBox="0 0 509 716.105"
   xmlns:dc="http://purl.org/dc/elements/1.1/"
   xmlns:cc="http://creativecommons.org/ns#"
   xmlns:rdf="http://www.w3.org/1999/02/22-rdf-syntax-ns#"
   xmlns:svg="http://www.w3.org/2000/svg"
   xmlns="http://www.w3.org/2000/svg"
   xmlns:sodipodi="http://sodipodi.sourceforge.net/DTD/sodipodi-0.dtd"
   xmlns:inkscape="http://www.inkscape.org/namespaces/inkscape"
   version="1.1"
   x="0px"
   y="0px" 
   enable-background="new 0 0 509 716.105"
   xml:space="preserve"
   sodipodi:version="0.32"
   inkscape:version="0.46"
   sodipodi:docname="Administrative_divisions_map_of_South_Korea.svg"
   inkscape:output_extension="org.inkscape.output.svg.inkscape">
   <metadata id="metadata3297">
   		<rdf:RDF>
	   		<cc:Work rdf:about="">
		   		<dc:format>image/svg+xml</dc:format>
		   		<dc:type rdf:resource="http://purl.org/dc/dcmitype/StillImage" />
	   		</cc:Work>
   		</rdf:RDF>
	</metadata>
	<defs id="defs3295">
   		<inkscape:perspective sodipodi:type="inkscape:persp3d" id="perspective3299" />
   	</defs>
   	<sodipodi:namedview
	   guidetolerance="10.0"
	   gridtolerance="10.0"
	   objecttolerance="10.0"
	   borderopacity="1.0"
	   bordercolor="#666666"
	   pagecolor="#ffffff"
	   id="base"
	   showgrid="false"
	   inkscape:current-layer="Layer_1" />
<g id="JeJuDo">
	<g id="JeJuSi_1">
		<path
		   id="JeJuSi"
		   fill="#B9B9B9"
		   stroke="#FFFFFF"
		   d="M381.083,674.105l12.667-11.666l0.333-3.166l4.334-2.834l2.5-3    l8.833-0.334l7.333-3.5l7.334-4h10.333l5.667-2.5l6.333-2l8.833-0.332l2.834-2.5l9,0.332l2,4.834l6.166,1.666l2.834,0.168l0.5,4    l-0.5,3.5l-11.5,5.832l-3.667,0.334l-3.167,3.666h-8.666l-2.667,2.168l-3.5,0.5l-5.167,3.832l-8.5,0.168l-2.333,2.332l-11,0.5    l-0.5,3.334l-8.333-1l-6.5,1.166l-9.5,6.668l-2.167,2.666l-6.167-3.834l-4,1.334V674.105L381.083,674.105z" />
		<path
		   fill="#B9B9B9"
		   stroke="#FFFFFF"
		   d="M484.583,646.439l-1.5,3.166l2,2.334l1.5-1.166l0.834-3.334L484.583,646.439z"
		   id="path3030" />
	</g>
	<g
	   id="SeoGuiPoSi">
			<path
			   fill="#B9B9B9"
			   stroke="#FFFFFF"
			   d="M383.25,686.439l-2.167-4l4-1.334l6.167,3.834l2.167-2.666l9.166-6.834l6.334-1l8.833,1    l0.5-3.334l11-0.5l2.333-2.332l8.5-0.168l5.167-3.832l3.5-0.5l2.667-2.168h8.666l3.167-3.666l4.333-0.5l10.834-5.666l3.166,2.5    l1.334,2l-2.334,2.832l1.334,2.168l-4,3.832l-3.334,3.334l-5.833,8l-0.167,3.334l-7.5,0.832l-5.5,4.5c0,0-10.667-0.5-11,0    s-6,6.334-6,6.334l-4.333-1.5l-11,1.166l-5-0.5h-3.167l-2.666-1.332l-2.334,1.666l-9-0.666l-3.333,2.332l-0.5,3.168l-2.833-0.334    l-5.667-6l-3.667-0.834L383.25,686.439z"
			   id="path3033" />
			<path
			   fill="#B9B9B9"
			   stroke="#FFFFFF"
			   d="M394.417,706.773l-0.5,3.5l1.5,0.332l1.333-2.332L394.417,706.773z"
			   id="path3035" />
	</g>
</svg>